# xmcd
#
# Track frame offsets:
#	150
#	9800
#	16235
#	29770
#	42575
#	58360
#	71120
#	87660
#	102195
#	128495
#	149530
#	171350
#	197140
#	210685
#	234680
#	244475
#	257635
#	274535
#	280105
#	293270
#	309060
#	325525
#
# Disc length: 4646 seconds
#
# Revision: 0
# Processed by: cddbd v1.5.1PL0 Copyright (c) Steve Scherf et al.
# Submitted via: EasyCDDAExtractor 8.0.2.1
#
DISCID=42122416
DTITLE=Alice Cooper - Badnerhalle Rastatt 13-06-04 Disc 1
DYEAR=2004
DGENRE=Hard Rock
TTITLE0=Black JuJu (Intro Tape)
TTITLE1=Hello Hooray
TTITLE2=No More Mr Nice Guy
TTITLE3=Man Of The Year 
TTITLE4=Billion Dollar Babies
TTITLE5=Between High School and Old School
TTITLE6=Muscle Of Love
TTITLE7=Be My Lover
TTITLE8=Who Do You Think We Are
TTITLE9=I´m Eighteen
TTITLE10=Desperado
TTITLE11=Halo Of Flies
TTITLE12=Bass and Drum
TTITLE13=Drum Solo
TTITLE14=Medley
TTITLE15=Sick Things
TTITLE16=Gutter Cat Vs The Jets
TTITLE17=Backyard Brawl
TTITLE18=Cold Ethyl
TTITLE19=Only Women Bleed
TTITLE20=Ballad Of Dwight Fry
TTITLE21=School´s Out
EXTD=
EXTT0=
EXTT1=
EXTT2=
EXTT3=
EXTT4=
EXTT5=
EXTT6=
EXTT7=
EXTT8=
EXTT9=
EXTT10=
EXTT11=
EXTT12=
EXTT13=
EXTT14=
EXTT15=
EXTT16=
EXTT17=
EXTT18=
EXTT19=
EXTT20=
EXTT21=
PLAYORDER=
